#!OML:ASF E:\VariousWalksJay\Project 1\Capture day 1\Session 1\Actor2.ASF
:FULLY-SPECIFIED
:DEGREES
1044
root -2.40158 16.8351 19.2029 21.9498 -61.5082 -19.0913
lowerback -5.32343 -0.631856 10.9542
upperback 2.40449 -1.81422 1.82732
thorax 5.27954 -0.568463 -4.39085
lowerneck -7.29579 -3.59287 -4.04869
upperneck -4.47412 -4.52088 10.5996
head 0.22444 -2.2239 4.06753
rclavicle 9.44227e-016 -3.24019e-014
rhumerus -38.6089 23.0122 -82.0401
rradius 22.2696
rwrist 21.5336
rhand 1.11791 -9.07977
rfingers 7.12502
rthumb 26.6607 -37.2222
lclavicle 9.44227e-016 -3.24019e-014
lhumerus -34.6899 -22.5489 83.334
lradius 25.8065
lwrist 1.98632
lhand -2.26185 -7.57116
lfingers 7.12502
lthumb 23.4222 21.0234
rfemur -14.9755 -3.92231 31.0484
rtibia 38.1422
rfoot -26.9688 -7.83758
rtoes -2.81171
lfemur -16.1773 6.82924 -12.5779
ltibia 40.4848
lfoot -28.3494 7.54819
ltoes -7.27634
1045
root -2.40878 16.837 19.2051 21.9429 -61.548 -19.0614
lowerback -5.40069 -0.622468 10.9516
upperback 2.34618 -1.80679 1.82368
thorax 5.26241 -0.567507 -4.39393
lowerneck -7.3448 -3.5724 -4.01263
upperneck -4.23087 -4.50959 10.5041
head 0.307061 -2.21039 4.02371
rclavicle 7.2544e-014 2.21645e-014
rhumerus -38.3947 23.3713 -81.9417
rradius 22.533
rwrist 21.1815
rhand 1.04928 -9.08911
rfingers 7.12502
rthumb 26.595 -37.2416
lclavicle 7.2544e-014 2.21645e-014
lhumerus -34.5228 -22.7044 83.2892
lradius 26.1007
lwrist 2.18506
lhand -2.21132 -7.742
lfingers 7.12502
lthumb 23.4707 20.8464
rfemur -14.9702 -3.82187 31.0413
rtibia 38.1439
rfoot -26.9547 -7.96615
rtoes -2.78753
lfemur -16.1404 6.84456 -12.6032
ltibia 40.446
lfoot -28.315 7.56898
ltoes -7.37186
1046
root -2.41566 16.8388 19.2077 21.9304 -61.6013 -19.0305
lowerback -5.46417 -0.609181 10.9485
upperback 2.29069 -1.79254 1.82031
thorax 5.2415 -0.563347 -4.3956
lowerneck -7.40279 -3.55205 -3.98163
upperneck -3.98392 -4.49795 10.4003
head 0.392275 -2.19644 3.97815
rclavicle 2.06115e-014 1.88845e-014
rhumerus -38.2016 23.7406 -81.8679
rradius 22.7782
rwrist 20.8295
rhand 0.973091 -9.08433
rfingers 7.12502
rthumb 26.5221 -37.2478
lclavicle 2.06115e-014 1.88845e-014
lhumerus -34.3765 -22.8859 83.276
lradius 26.385
lwrist 2.38689
lhand -2.16857 -7.8457
lfingers 7.12502
lthumb 23.5117 20.7374
rfemur -14.9634 -3.7349 31.0235
rtibia 38.1516
rfoot -26.9377 -8.06957
rtoes -2.76706
lfemur -16.0947 6.85775 -12.6368
ltibia 40.4061
lfoot -28.2857 7.60319
ltoes -7.46778
1047
root -2.4222 16.8405 19.2103 21.9112 -61.661 -18.9926
lowerback -5.51774 -0.593173 10.942
upperback 2.23713 -1.7732 1.81667
thorax 5.21782 -0.556882 -4.39491
lowerneck -7.46781 -3.53184 -3.94899
upperneck -3.73724 -4.48613 10.2834
head 0.478124 -2.18246 3.92783
rclavicle 2.00524e-014 6.85807e-015
rhumerus -38.0253 24.1143 -81.8163
rradius 22.9996
rwrist 20.5036
rhand 0.907131 -9.07064
rfingers 7.12502
rthumb 26.459 -37.2436
lclavicle 2.00524e-014 6.85807e-015
lhumerus -34.2472 -23.0889 83.2879
lradius 26.6557
lwrist 2.54887
lhand -2.14125 -7.89388
lfingers 7.12502
lthumb 23.5379 20.6859
rfemur -14.9588 -3.65928 30.9974
rtibia 38.1627
rfoot -26.92 -8.15386
rtoes -2.74538
lfemur -16.0477 6.86686 -12.675
ltibia 40.366
lfoot -28.2637 7.62547
ltoes -7.51315
1048
root -2.42846 16.842 19.2131 21.8929 -61.7234 -18.9591
lowerback -5.56408 -0.576301 10.939
upperback 2.18957 -1.75281 1.81689
thorax 5.19668 -0.549579 -4.39189
lowerneck -7.53551 -3.51169 -3.93749
upperneck -3.5032 -4.47173 10.1754
head 0.561026 -2.16738 3.88528
rclavicle 1.717e-014 -6.95746e-015
rhumerus -37.8582 24.5004 -81.7808
rradius 23.1996
rwrist 20.2226
rhand 0.850678 -9.05551
rfingers 7.12502
rthumb 26.4049 -37.2366
lclavicle 1.717e-014 -6.95746e-015
lhumerus -34.1366 -23.3201 83.3306
lradius 26.9203
lwrist 2.66158
lhand -2.1304 -7.89848
lfingers 7.12502
lthumb 23.5483 20.6799
rfemur -14.9518 -3.59334 30.9697
rtibia 38.1755
rfoot -26.9035 -8.21958
rtoes -2.70539
lfemur -15.9976 6.86988 -12.712
ltibia 40.3268
lfoot -28.2466 7.64762
ltoes -7.53561
1049
root -2.43457 16.8436 19.216 21.8679 -61.786 -18.9206
lowerback -5.6061 -0.55824 10.9357
upperback 2.14774 -1.73081 1.81813
thorax 5.17949 -0.541128 -4.38739
lowerneck -7.60409 -3.49206 -3.93386
upperneck -3.28346 -4.45621 10.0675
head 0.639602 -2.15222 3.84472
rclavicle -3.79182e-014 1.72943e-014
rhumerus -37.7008 24.8847 -81.7575
rradius 23.3794
rwrist 20.0013
rhand 0.80579 -9.03623
rfingers 7.12502
rthumb 26.362 -37.2238
lclavicle -3.79182e-014 1.72943e-014
lhumerus -34.0482 -23.5928 83.402
lradius 27.1848
lwrist 2.71748
lhand -2.13996 -7.88838
lfingers 7.12502
lthumb 23.5391 20.6912
rfemur -14.9418 -3.53295 30.9374
rtibia 38.1875
rfoot -26.8887 -8.27574
rtoes -2.65596
lfemur -15.9464 6.85157 -12.75
ltibia 40.2904
lfoot -28.2429 7.65579
ltoes -7.47039
1050
root -2.44052 16.8451 19.219 21.8444 -61.8446 -18.8865
lowerback -5.64846 -0.541243 10.9373
upperback 2.11575 -1.71158 1.82015
thorax 5.17255 -0.533056 -4.3851
lowerneck -7.67857 -3.47028 -3.92605
upperneck -3.08062 -4.43676 9.95525
head 0.71319 -2.13572 3.80227
rclavicle -1.34925e-014 -2.99171e-014
rhumerus -37.5392 25.253 -81.7391
rradius 23.538
rwrist 19.8418
rhand 0.779187 -9.01987
rfingers 7.12502
rthumb 26.3365 -37.2112
lclavicle -1.34925e-014 -2.99171e-014
lhumerus -33.9665 -23.878 83.4801
lradius 27.4421
lwrist 2.69447
lhand -2.16996 -7.89924
lfingers 7.12502
lthumb 23.5104 20.684
rfemur -14.9287 -3.47691 30.908
rtibia 38.1978
rfoot -26.8754 -8.33007
rtoes -2.61166
lfemur -15.8963 6.82163 -12.7841
ltibia 40.2581
lfoot -28.2452 7.66297
ltoes -7.37694
1051
root -2.44638 16.8466 19.2219 21.8197 -61.8978 -18.8512
lowerback -5.69241 -0.524668 10.9391
upperback 2.09253 -1.69395 1.82274
thorax 5.17568 -0.524965 -4.38259
lowerneck -7.75462 -3.44833 -3.91564
upperneck -2.89906 -4.41579 9.84349
head 0.779995 -2.11924 3.75987
rclavicle 4.5764e-014 -1.20265e-014
rhumerus -37.377 25.6016 -81.7237
rradius 23.6823
rwrist 19.7242
rhand 0.774856 -9.01389
rfingers 7.12502
rthumb 26.3323 -37.2059
lclavicle 4.5764e-014 -1.20265e-014
lhumerus -33.887 -24.1582 83.5581
lradius 27.6895
lwrist 2.59134
lhand -2.21203 -7.95653
lfingers 7.12502
lthumb 23.47 20.6319
rfemur -14.9139 -3.42022 30.8804
rtibia 38.2053
rfoot -26.8637 -8.38943
rtoes -2.57396
lfemur -15.8507 6.77873 -12.8173
ltibia 40.2311
lfoot -28.2531 7.67337
ltoes -7.26351
1052
root -2.45209 16.8479 19.2246 21.7967 -61.9427 -18.8177
lowerback -5.73764 -0.511343 10.9416
upperback 2.07821 -1.68183 1.82799
thorax 5.18826 -0.518851 -4.37823
lowerneck -7.83562 -3.42477 -3.90272
upperneck -2.73663 -4.39145 9.72962
head 0.841095 -2.1017 3.71663
rclavicle -4.45216e-014 -1.93815e-015
rhumerus -37.2136 25.9313 -81.7064
rradius 23.8167
rwrist 19.6327
rhand 0.773253 -9.00971
rfingers 7.12502
rthumb 26.3308 -37.2019
lclavicle -4.45216e-014 -1.93815e-015
lhumerus -33.8089 -24.4194 83.6309
lradius 27.9306
lwrist 2.43137
lhand -2.27287 -8.07021
lfingers 7.12502
lthumb 23.4117 20.5257
rfemur -14.8989 -3.36004 30.8579
rtibia 38.2103
rfoot -26.8547 -8.45755
rtoes -2.53937
lfemur -15.8124 6.72701 -12.8477
ltibia 40.2106
lfoot -28.2628 7.69116
ltoes -7.15134
